<?xml version="1.0" encoding="UTF-8"?>
<svg id="Ebene_1" data-name="Ebene 1" xmlns="http://www.w3.org/2000/svg" viewBox="0 0 8125 3200">
  <defs>
    <style>
      .cls-1 {
        fill: #fff;
      }
    </style>
  </defs>
  <g id="Claim_Kurz" data-name="Claim Kurz">
    <polygon class="cls-1" points="3067.571 745.748 2994.076 608.281 2988.631 608.281 3002.242 745.748 3002.242 1369.101 2896.08 1369.101 2896.08 401.4 2955.965 401.4 3411.916 1037.006 3482.691 1167.669 3489.496 1167.669 3474.525 1037.006 3474.525 416.369 3580.686 416.369 3580.686 1384.071 3520.8 1384.071 3067.571 745.748"/>
    <polygon class="cls-1" points="3820.215 416.369 4338.775 416.369 4338.775 517.085 3933.178 517.085 3933.178 842.377 4311.552 842.377 4311.552 943.093 3933.178 943.093 3933.178 1369.101 3820.215 1369.101 3820.215 416.369"/>
    <path class="cls-1" d="M5203.712,691.303c-17.694-58.973-44.701-109.563-80.982-151.755-36.302-42.192-82.345-75.072-138.148-98.681-55.799-23.584-121.812-35.38-198.03-35.38-19.057,0-39.704.233-61.926.673-22.247.473-44.917.922-68.052,1.362-23.14.474-45.386,1.363-66.694,2.725-21.329,1.362-40.618,3.406-57.843,6.122v954.094c9.059,1.811,24.029,3.173,44.913,4.087,20.864.889,43.555,2.035,68.052,3.398,24.498,1.362,48.319,2.26,71.454,2.725,23.14.449,41.959.681,56.485.681,82.557,0,152.885-13.823,210.964-41.511,58.055-27.671,105.244-64.422,141.546-110.244,36.281-45.814,62.823-98.448,79.624-157.886,16.776-59.413,25.179-121.343,25.179-185.781,0-70.777-8.848-135.639-26.542-194.628ZM5094.149,1033.608c-10.891,47.633-29.262,89.825-55.122,126.576-25.86,36.742-60.355,66.009-103.441,87.782-43.105,21.781-96.421,32.672-159.921,32.672-4.552,0-13.167-.216-25.86-.681-12.718-.449-25.86-.897-39.471-1.362-13.611-.449-26.774-.897-39.472-1.363-12.718-.448-21.329-1.13-25.86-2.043v-762.182c6.338-.897,15.186-1.811,26.542-2.725,11.335-.889,23.817-1.802,37.428-2.716,13.611-.897,27.435-1.362,41.511-1.362h38.79c62.611,0,114.543,11.563,155.842,34.707,41.278,23.135,74.175,52.867,98.673,89.144,24.502,36.302,41.727,76.899,51.72,121.816,9.977,44.917,14.974,89.618,14.974,134.061,0,50.823-5.445,100.035-16.332,147.677Z"/>
    <rect class="cls-1" x="5456.175" y="416.369" width="112.965" height="952.732"/>
    <path class="cls-1" d="M6619.3,980.91V401.103h-73.5l-451.864,630.165v44.917h419.2v292.62h106.164v-292.62h160.603v-95.275h-160.603ZM6513.137,684.203v296.707h-200.074l-95.275,10.891,65.332-66.698,191.908-259.956,47.637-92.55h4.083l-13.611,111.607Z"/>
    <path class="cls-1" d="M3605.626,2102.009c-16.128-60.019-40.782-111.557-73.921-154.563-33.16-43.006-74.825-76.152-124.996-99.462-50.19-23.285-108.865-34.94-176.068-34.94-128.144,0-226.7,42.333-295.687,127.008-69.008,84.675-103.49,205.428-103.49,362.217,0,73.485,8.064,140.241,24.192,200.261,16.128,60.044,40.533,111.557,73.25,154.563,32.697,43.006,74.131,76.168,124.323,99.462,50.171,23.285,109.308,34.94,177.412,34.94,127.222,0,225.566-42.333,295.016-127.008,69.427-84.675,104.161-205.403,104.161-362.217,0-73.46-8.064-140.217-24.193-200.261ZM3382.517,2550.919c-35.847,51.072-86.479,76.609-151.875,76.609-35.848,0-66.761-8.066-92.737-24.199-25.999-16.124-47.272-38.512-63.843-67.197-16.59-28.668-28.896-62.943-36.961-102.818-8.064-39.858-12.095-83.545-12.095-131.045,0-111.997,17.912-194.213,53.76-246.631,35.827-52.418,86.459-78.627,151.876-78.627,37.633,0,69.429,8.299,95.426,24.872,25.979,16.589,47.042,39.642,63.17,69.215,16.128,29.565,27.993,64.073,35.617,103.491,7.603,39.434,11.425,81.983,11.425,127.681,0,114.705-17.935,197.569-53.762,248.65Z"/>
    <path class="cls-1" d="M4363.868,2412.481c-10.313-26.882-24.423-49.727-42.338-68.542-17.935-18.816-38.977-33.602-63.171-44.36-24.19-10.75-49.727-18.35-76.609-22.845v-8.066c30.45-7.161,56.451-18.143,77.955-32.93,21.503-14.778,38.977-31.792,52.418-51.072,13.441-19.256,23.057-40.531,28.896-63.841,5.815-23.285,8.735-46.578,8.735-69.888,0-46.578-9.869-85.115-29.569-115.586-19.717-30.454-45.926-54.204-78.623-71.234-32.722-17.013-69.892-28.901-111.557-35.621-41.665-6.72-84.463-10.077-128.354-10.077-25.997,0-52.207.465-78.627,1.346-26.438.897-52.206,2.243-77.281,4.029-25.096,1.803-48.615,4.029-70.561,6.721-21.966,2.691-41.455,5.375-58.466,8.066v927.378c23.289,5.375,49.058,9.412,77.281,12.095,28.226,2.692,55.986,4.71,83.329,6.048,27.322,1.346,52.858,2.019,76.613,2.019h58.466c46.578,0,91.831-5.375,135.747-16.124,43.891-10.758,83.096-27.322,117.6-49.735,34.483-22.379,62.038-51.28,82.661-86.685,20.598-35.388,30.911-77.281,30.911-125.671,0-36.726-5.167-68.542-15.455-95.424ZM3894.127,1978.298c10.754-1.769,25.977-3.09,45.698-3.971,19.7-.881,41.204-1.346,64.513-1.346,20.602,0,40.323,1.786,59.139,5.333,18.816,3.547,35.617,9.744,50.4,18.608,14.787,8.864,26.649,20.834,35.617,35.912,8.947,15.078,13.441,34.126,13.441,57.187,0,34.583-12.328,62.511-36.963,83.786-24.651,21.3-53.992,37.258-88.031,47.882-10.754,1.761-24.427,3.107-40.996,3.988-16.589.889-31.144,1.329-43.679,1.329h-59.139v-248.708ZM4173.688,2557.05c-9.873,16.864-22.849,30.828-38.977,41.918-16.128,11.082-34.736,19.298-55.779,24.606-21.063,5.341-42.799,7.983-65.186,7.983-8.968,0-19.489-.208-31.584-.648-12.095-.44-23.75-.881-34.944-1.346-11.215-.44-21.736-1.113-31.588-1.994-9.869-.881-17.03-2.21-21.503-3.996v-256.791h98.116c23.289,0,46.578,1.346,69.888,3.987,23.289,2.667,44.352,8.656,63.172,17.977,18.816,9.329,34.039,22.413,45.694,39.251,11.634,16.847,17.474,39.899,17.474,69.174,0,23.061-4.935,43.031-14.783,59.878Z"/>
    <path class="cls-1" d="M4628.512,1831.86h184.132v688.14c0,35.854-4.033,69.896-12.099,102.153-8.062,32.257-21.295,60.709-39.646,85.339-18.375,24.656-41.897,44.352-70.565,59.139-28.685,14.787-63.629,22.18-104.832,22.18-26.001,0-54.225-2.692-84.675-8.066-30.471-5.375-56.892-12.976-79.296-22.845l40.319-150.534c23.289,11.655,49.731,17.47,79.3,17.47,37.631,0,61.593-13.881,71.903-41.66,10.293-27.763,15.46-64.513,15.46-110.211v-641.105Z"/>
    <polygon class="cls-1" points="4975.174 1831.86 5532.946 1831.86 5532.946 1995.827 5159.306 1995.827 5159.306 2214.911 5499.348 2214.911 5499.348 2378.878 5159.306 2378.878 5159.306 2608.712 5539.666 2608.712 5539.666 2772.679 4975.174 2772.679 4975.174 1831.86"/>
    <path class="cls-1" d="M6289.999,2734.167c-28.689,20.452-65.186,35.114-109.538,43.995-44.352,8.88-89.842,13.333-136.42,13.333-56.451,0-109.999-8.731-160.611-26.209-50.632-17.47-95.217-45.698-133.733-84.675-38.537-38.969-69.215-89.584-92.064-151.872-22.849-62.27-34.275-137.766-34.275-226.47,0-92.276,12.768-169.557,38.304-231.845,25.536-62.27,58.678-112.437,99.462-150.534,40.759-38.072,86.224-65.394,136.416-81.983,50.171-16.573,100.342-24.863,150.534-24.863,53.76,0,99.225,3.589,136.42,10.749,37.17,7.186,67.874,15.692,92.064,25.536l-36.29,155.909c-20.623-9.852-45.025-17.013-73.248-21.507-28.224-4.469-62.499-6.72-102.818-6.72-74.386,0-134.194,26.508-179.431,79.466-45.253,52.983-67.874,135.141-67.874,246.465,0,48.489,5.379,92.716,16.128,132.657,10.754,39.966,27.094,74.092,49.058,102.361,21.948,28.286,49.266,50.292,81.988,66,32.697,15.709,70.561,23.567,113.571,23.567,40.319,0,74.362-4.037,102.145-12.095,27.763-8.066,51.957-18.359,72.58-30.919l37.631,149.654Z"/>
    <polygon class="cls-1" points="7079.899 1995.827 6805.717 1995.827 6805.717 2772.679 6621.583 2772.679 6621.583 1995.827 6346.055 1995.827 6346.055 1831.86 7079.899 1831.86 7079.899 1995.827"/>
    <path class="cls-1" d="M7574.282,2520c0-28.66-10.542-51.953-31.584-69.888-21.063-17.91-47.5-34.275-79.296-49.054-31.816-14.787-66.32-30.014-103.491-45.698-37.191-15.667-71.695-34.948-103.491-57.793-31.816-22.853-58.258-51.288-79.3-85.348-21.063-34.043-31.584-77.489-31.584-130.373,0-45.698,7.601-85.348,22.849-118.942,15.227-33.602,36.963-61.598,65.186-84.002,28.224-22.388,61.593-38.977,100.13-49.735,38.516-10.749,81.522-16.124,129.027-16.124,54.645,0,106.178,4.702,154.563,14.114,48.385,9.404,88.243,23.077,119.619,40.988l-57.793,154.563c-19.721-12.536-49.286-23.958-88.708-34.267-39.438-10.293-81.983-15.46-127.681-15.46-43.01,0-75.94,8.523-98.785,25.536-22.849,17.03-34.275,39.883-34.275,68.542,0,26.882,10.521,49.295,31.584,67.205,21.042,17.935,47.484,34.508,79.3,49.727,31.796,15.252,66.299,30.919,103.491,47.043,37.17,16.133,71.674,35.621,103.491,58.466,31.796,22.845,58.233,51.072,79.296,84.675,21.042,33.602,31.584,75.495,31.584,125.662s-8.295,93.414-24.863,129.7c-16.589,36.294-39.879,66.532-69.888,90.723-30.03,24.199-66.32,42.134-108.87,53.764-42.566,11.638-89.377,17.47-140.449,17.47-67.201,0-126.339-6.28-177.412-18.816-51.072-12.536-88.708-25.071-112.898-37.631l59.135-157.255c9.852,5.383,22.62,11.215,38.308,17.478,15.663,6.28,33.37,12.095,53.087,17.47,19.7,5.375,40.531,9.869,62.499,13.441,21.943,3.589,44.564,5.375,67.874,5.375,54.645,0,96.538-9.179,125.667-27.555,29.108-18.351,43.679-46.362,43.679-84.002Z"/>
  </g>
  <g id="Kringel-Aussparungen">
    <g>
      <path class="cls-1" d="M1365.717,749.11c2.202-.168,4.094-.266,5.649-.347.505-.027,1.011-.052,1.52-.082,9.797-.57,19.726-1.069,29.768-1.497h.003c30.342-65.224,61.217-127.669,87.119-171.109,44.806-75.148,99.983-93.069,150.721,12.802,6.358,13.271,58.984,147.936,46.566,118.066,15.352,36.924,249.401,714.196,285.408,830.277,121.851-48.776,198.061-95.732,252.679-149.461l.572-.643c23.335-22.805,19.965-51.865,13.295-76.537.002-.005.004-.01.005-.015-8.945-28.438-193.193-552.816-265.293-718.956-53.853-125.715-112.316-257.062-205.556-359.477-109.84-120.423-270.632-123.453-384.099-5.206-150.037,156.388-249.737,373.9-337.131,573.806,38.512-12.208,77.053-21.781,117.995-29.357,57.064-10.56,119.01-17.43,200.78-22.264h0Z"/>
      <path class="cls-1" d="M2081.811,858.732c-.048.036-.094.076-.142.112.015,0,.581.065,1.638.207-.499-.105-.996-.215-1.495-.319Z"/>
      <path class="cls-1" d="M2494.847,1087.55c-88.88-103.759-206.064-169.907-332.485-208.264,4.394,11.545,13.857,39.958,28.755,81.388l63.809,178.43c10.222,29.278,36.302,106.599,55.311,162.332,16.064,47.101-6.847,90.408-14.172,104.17-.311.585-.627,1.169-.947,1.75-.39.707-.788,1.412-1.191,2.113-.33.576-.662,1.149-1.001,1.721-.417.701-.844,1.399-1.273,2.094-.346.56-.691,1.119-1.044,1.675-.448.701-.907,1.397-1.369,2.092-.359.54-.714,1.082-1.081,1.618-.483.706-.98,1.405-1.477,2.103-.366.514-.725,1.03-1.097,1.538-.531.727-1.08,1.444-1.627,2.162-.359.471-.709.946-1.075,1.414-.616.788-1.252,1.566-1.887,2.344-.315.386-.622.778-.941,1.162-.964,1.156-1.947,2.301-2.954,3.432-.166.213-.267.35-.525.64-35.766,38.006-78.721,69.578-132.226,101.307-53.505,31.729-102.394,52.4-171.695,75.451-234.638,73.944-596.081,96.987-716.335,93.854-19.184-.5-47.702-1.856-67.069-3.907-19.366-2.051-31.625-5.263-43.416-10.054-51.097-20.762-59.269-76.602-53.062-115.539,25.91-122.41,69.668-236.943,115.135-352.2-100.322,27.865-198.26,63.535-314.173,178.702-32.023,31.987-61.261,67.814-86.957,106.509-22.948,141.798-30.173,309.397,95.732,405.133,73.824,56.115,171.503,68.533,260.902,79.03,91.491,10.797,184.134,11.223,276.052,6.999,127.814-5.862,257.784-19.144,385.282-43.257,1.763-.334,3.526-.673,5.288-1.01,4.259-.816,8.514-1.644,12.768-2.485,1.691-.334,3.383-.665,5.073-1.003,5.767-1.153,11.53-2.322,17.284-3.522.247-.051.493-.105.74-.157,5.507-1.149,11.009-2.325,16.504-3.518,1.728-.374,3.454-.756,5.18-1.135,4.213-.924,8.422-1.863,12.628-2.813,1.728-.39,3.457-.779,5.184-1.174,5.495-1.257,10.984-2.529,16.465-3.828.236-.056.472-.11.707-.165,5.695-1.353,11.381-2.737,17.06-4.139,1.685-.416,3.367-.839,5.051-1.258,4.172-1.041,8.341-2.094,12.505-3.162,1.749-.448,3.497-.895,5.245-1.348,5.097-1.321,10.188-2.66,15.27-4.023.586-.157,1.175-.309,1.761-.468,5.638-1.516,11.264-3.064,16.884-4.63,1.613-.45,3.223-.908,4.835-1.362,4.158-1.171,8.311-2.356,12.459-3.555,1.744-.504,3.488-1.008,5.229-1.517,4.804-1.404,9.6-2.826,14.389-4.268.83-.25,1.662-.493,2.491-.745,6.051-1.832,12.091-3.693,18.117-5.586h0c119.308-36.985,225.132-86.751,302.677-138.316.004-.003.007-.005.011-.008,1.072-.722,2.139-1.45,3.206-2.178,2.351-1.602,4.693-3.216,7.024-4.842.389-.271.777-.544,1.165-.817,2.4-1.681,4.791-3.373,7.169-5.08.159-.115.317-.23.478-.345,2.335-1.68,4.658-3.375,6.972-5.081.279-.205.559-.41.837-.616,2.303-1.703,4.593-3.423,6.872-5.152.415-.314.829-.628,1.242-.943,2.242-1.708,4.474-3.43,6.693-5.163.388-.304.774-.608,1.161-.912,2.281-1.79,4.552-3.591,6.807-5.407.176-.142.351-.285.525-.427,2.214-1.788,4.416-3.591,6.606-5.405.258-.215.52-.427.778-.643,2.193-1.823,4.37-3.662,6.536-5.512.396-.338.792-.676,1.187-1.014,2.126-1.824,4.239-3.662,6.338-5.512.374-.33.747-.661,1.119-.991,2.153-1.908,4.296-3.825,6.421-5.762.184-.167.366-.336.548-.504,2.091-1.91,4.168-3.834,6.23-5.772.228-.214.458-.426.686-.641,2.075-1.955,4.132-3.927,6.176-5.91.364-.353.728-.705,1.091-1.059,2.002-1.952,3.99-3.917,5.961-5.895.351-.352.699-.704,1.048-1.057,2.016-2.033,4.018-4.077,6.001-6.139.185-.193.367-.387.552-.58,1.954-2.037,3.891-4.089,5.813-6.155.198-.214.4-.425.598-.64,1.936-2.088,3.852-4.194,5.755-6.311,43.61-48.53,78.298-104.782,99.433-170.141,46.94-145.088,10.756-284.924-80.734-400.142v.002Z"/>
      <path class="cls-1" d="M2074.396,1964.255c-1.82.577-2.322.731-2.892.907l-.627.195c-4.829,1.507-9.683,2.997-14.557,4.474-.004,1.465-.009,2.934-.019,4.426-1.323,162.413-48.52,343.347-151.02,462.917-123.752,127.677-271.912,208.756-454.339,234.702-254.928,29.103-443.457-14.466-609.327-149.355-147.475-118.525-235.846-329.673-241.956-518.775-6.657-189.212,54.027-383.447,147.908-531.309,2.887-4.389,5.809-8.709,8.749-12.991,17.149-24.981,35.18-48.149,53.926-69.648,11.393-13.067,23.043-25.533,34.925-37.4h0c148.093-147.184,273.382-177.375,394.175-209.731h0c141.728-32.194,265.605-27.891,321.099-26.989,61.438.737,136.865,3.896,205.786,9.89v-.002c-6.973-17.764-100.243-280.177-109.645-306.455-53.816-3.18-108.751-5.135-164.149-5.069-3.287.004-6.576.014-9.867.032-1.515.009-3.032.019-4.548.03-3.173.025-6.348.056-9.523.094-1.364.017-30.614.613-35.154.711-3.15.09-6.299.188-9.45.293-1.49.05-2.981.1-4.471.153-3.518.126-7.036.261-10.555.406-.988.041-1.978.077-2.966.119-4.469.191-8.94.397-13.41.619-1.113.055-2.226.117-3.339.174-3.408.175-6.817.359-10.226.553-2.823.161-5.646.321-8.469.495h0c-147.341,8.678-247.598,25.235-359.209,68.468-1.343.477-2.683.966-4.024,1.45-1.364.491-2.728.98-4.09,1.478-1.18.431-2.357.87-3.535,1.306-1.359.502-2.718,1.001-4.075,1.51-1.182.443-2.361.894-3.541,1.341-1.347.511-2.694,1.018-4.039,1.533-1.198.46-2.393.928-3.59,1.393-1.324.514-2.65,1.025-3.971,1.545-1.194.47-2.383.948-3.575,1.423-1.324.527-2.65,1.05-3.971,1.584-1.185.477-2.367.964-3.549,1.446-1.322.539-2.646,1.075-3.965,1.619-1.195.493-2.386.996-3.58,1.494-1.304.544-2.609,1.086-3.912,1.637-1.196.506-2.388,1.021-3.583,1.532-1.297.555-2.595,1.105-3.888,1.666-1.182.512-2.361,1.033-3.541,1.55-1.304.571-2.608,1.138-3.909,1.715-1.187.527-2.37,1.062-3.555,1.593-1.285.577-2.572,1.149-3.855,1.731-1.197.543-2.389,1.095-3.584,1.645-1.272.584-2.546,1.164-3.817,1.755-1.192.554-2.379,1.118-3.57,1.677-1.264.594-2.531,1.185-3.793,1.784-1.197.569-2.389,1.147-3.583,1.722-1.255.603-2.511,1.202-3.764,1.812-1.185.577-2.365,1.163-3.547,1.745-1.255.618-2.513,1.231-3.766,1.855-1.192.593-2.38,1.198-3.57,1.796-1.239.624-2.48,1.243-3.716,1.872-1.189.605-2.373,1.221-3.559,1.832-1.234.636-2.47,1.266-3.702,1.908-1.184.617-2.364,1.244-3.545,1.867-1.229.647-2.459,1.289-3.685,1.942-1.167.622-2.33,1.255-3.496,1.882-1.238.666-2.477,1.328-3.711,2.001-1.161.633-2.317,1.275-3.476,1.914-1.231.678-2.464,1.351-3.692,2.035-1.161.647-2.318,1.305-3.478,1.958-1.224.689-2.449,1.372-3.67,2.068-1.163.662-2.321,1.336-3.483,2.004-1.208.696-2.419,1.386-3.624,2.088-1.173.683-2.341,1.376-3.511,2.066-1.193.701-2.386,1.398-3.576,2.105-1.14.678-2.273,1.368-3.41,2.051-1.214.73-2.431,1.455-3.643,2.193-1.141.694-2.275,1.399-3.413,2.097-1.201.739-2.405,1.472-3.603,2.216-1.148.714-2.292,1.44-3.438,2.16-1.184.744-2.37,1.481-3.55,2.231-1.135.721-2.263,1.453-3.395,2.18-1.187.762-2.376,1.518-3.56,2.287-1.121.728-2.237,1.468-3.355,2.201-1.19.78-2.381,1.555-3.568,2.341-1.125.747-2.245,1.504-3.367,2.257-1.174.787-2.35,1.567-3.52,2.36-1.162.788-2.319,1.589-3.48,2.383-1.125.77-2.252,1.535-3.374,2.312-1.252.866-2.497,1.746-3.745,2.62-1.025.717-2.051,1.427-3.073,2.15-1.298.919-2.591,1.85-3.884,2.776-.968.693-1.938,1.378-2.904,2.076-1.506,1.089-3.006,2.191-4.507,3.291-.746.546-1.494,1.086-2.239,1.635h0c-348.212,256.961-516.893,612.427-488.985,1026.611,26.97,399.717,240.687,737.577,611.942,883.263,322.138,126.312,727.745,92.301,1021.505-92.259,346.54-217.715,474.52-603.703,441.174-989.222-81.804,49.833-183.644,94.749-290.794,127.981h0Z"/>
    </g>
  </g>
</svg>