<?xml version="1.0" encoding="UTF-8"?>
<svg id="Ebene_1" data-name="Ebene 1" xmlns="http://www.w3.org/2000/svg" viewBox="0 0 3200 3200">
  <defs>
    <style>
      .cls-1 {
        fill: #fff;
      }
    </style>
  </defs>
  <path class="cls-1" d="M1584.069,767.964c2.242-.171,4.167-.271,5.75-.353.514-.027,1.029-.053,1.547-.083,9.972-.58,20.079-1.088,30.301-1.524h.003c30.886-66.393,62.314-129.957,88.68-174.175,45.609-76.494,101.774-94.737,153.422,13.031,6.472,13.509,60.041,150.587,47.4,120.181,15.627,37.586,253.87,726.993,290.522,845.153,124.034-49.65,201.61-97.447,257.206-152.139l.582-.654c23.753-23.214,20.323-52.794,13.533-77.908.002-.005.004-.01.005-.015-9.105-28.948-196.654-562.721-270.046-731.838-54.818-127.967-114.328-261.668-209.239-365.918-111.808-122.581-275.481-125.665-390.981-5.299-152.725,159.19-254.212,380.599-343.172,584.087,39.202-12.427,78.434-22.171,120.109-29.883,58.086-10.749,121.142-17.742,204.377-22.663h0Z"/>
  <path class="cls-1" d="M2312.994,879.55c-.049.037-.096.077-.145.114.015,0,.591.066,1.667.211-.508-.107-1.014-.219-1.522-.325Z"/>
  <path class="cls-1" d="M2733.43,1112.468c-90.473-105.618-209.756-172.951-338.442-211.996,4.473,11.752,14.105,40.674,29.27,82.846l64.952,181.627c10.405,29.803,36.953,108.509,56.302,165.241,16.352,47.945-6.97,92.028-14.426,106.036-.317.596-.638,1.19-.964,1.781-.397.72-.802,1.437-1.212,2.151-.336.586-.674,1.17-1.019,1.752-.424.714-.859,1.424-1.296,2.132-.352.57-.703,1.139-1.063,1.705-.456.714-.923,1.422-1.393,2.129-.365.55-.727,1.101-1.1,1.647-.492.719-.998,1.43-1.504,2.141-.372.523-.738,1.048-1.117,1.566-.541.74-1.099,1.47-1.656,2.201-.365.479-.722.963-1.094,1.439-.627.802-1.275,1.594-1.921,2.386-.321.393-.633.792-.958,1.183-.981,1.177-1.982,2.342-3.007,3.493-.169.217-.272.356-.534.651-36.407,38.687-80.131,70.825-134.595,103.122-54.464,32.297-104.228,53.339-174.771,76.803-238.842,75.269-606.761,98.725-729.17,95.535-19.527-.509-48.557-1.89-68.271-3.977-19.713-2.087-32.191-5.357-44.194-10.234-52.013-21.134-60.331-77.974-54.013-117.609,26.374-124.603,70.916-241.188,117.198-358.511-102.119,28.364-201.812,64.673-319.802,181.904-32.597,32.56-62.359,69.029-88.515,108.417-23.359,144.339-30.714,314.941,97.447,412.392,75.147,57.12,174.576,69.761,265.577,80.446,93.13,10.99,187.433,11.424,280.998,7.124,130.104-5.967,262.403-19.487,392.185-44.032,1.795-.34,3.589-.685,5.383-1.028,4.335-.831,8.667-1.674,12.997-2.529,1.721-.34,3.443-.677,5.164-1.021,5.87-1.174,11.736-2.364,17.594-3.585.251-.052.502-.107.753-.16,5.606-1.17,11.206-2.367,16.8-3.581,1.759-.381,3.516-.769,5.273-1.155,4.288-.941,8.573-1.896,12.854-2.863,1.759-.397,3.519-.793,5.277-1.195,5.593-1.279,11.181-2.574,16.76-3.897.24-.057.48-.112.72-.168,5.797-1.377,11.585-2.786,17.366-4.213,1.715-.423,3.427-.854,5.141-1.281,4.247-1.06,8.49-2.132,12.729-3.219,1.78-.456,3.56-.911,5.339-1.372,5.188-1.345,10.37-2.708,15.544-4.095.597-.16,1.196-.315,1.793-.476,5.739-1.543,11.466-3.119,17.187-4.713,1.642-.458,3.281-.924,4.922-1.386,4.233-1.192,8.46-2.398,12.682-3.619,1.775-.513,3.55-1.026,5.323-1.544,4.89-1.429,9.772-2.877,14.647-4.345.845-.254,1.692-.502,2.536-.758,6.159-1.865,12.308-3.759,18.442-5.686h0c121.446-37.648,229.166-88.305,308.1-140.794.004-.003.007-.005.011-.008,1.091-.735,2.177-1.476,3.263-2.217,2.393-1.631,4.777-3.274,7.15-4.929.396-.276.791-.554,1.186-.832,2.443-1.711,4.877-3.433,7.297-5.171.162-.117.323-.234.486-.351,2.377-1.71,4.742-3.435,7.097-5.172.284-.209.569-.417.852-.627,2.344-1.734,4.675-3.484,6.995-5.244.422-.32.844-.639,1.264-.96,2.282-1.739,4.554-3.491,6.813-5.256.395-.309.788-.619,1.182-.928,2.322-1.822,4.633-3.655,6.929-5.504.179-.144.357-.29.535-.435,2.254-1.82,4.495-3.655,6.724-5.502.263-.219.529-.435.792-.654,2.232-1.856,4.448-3.728,6.653-5.611.403-.344.806-.688,1.208-1.032,2.164-1.857,4.315-3.728,6.452-5.611.381-.336.76-.673,1.139-1.009,2.192-1.942,4.373-3.894,6.536-5.865.187-.17.372-.342.558-.513,2.129-1.944,4.243-3.903,6.342-5.875.232-.218.466-.434.698-.653,2.112-1.99,4.206-3.997,6.287-6.016.37-.359.741-.718,1.11-1.078,2.038-1.987,4.061-3.987,6.068-6.001.357-.358.712-.717,1.067-1.076,2.052-2.069,4.09-4.15,6.109-6.249.188-.196.374-.394.562-.59,1.989-2.074,3.961-4.162,5.917-6.265.202-.218.407-.433.609-.651,1.971-2.125,3.921-4.269,5.858-6.424,44.391-49.4,79.701-106.659,101.214-173.19,47.781-147.688,10.949-290.029-82.181-407.311v.002Z"/>
  <path class="cls-1" d="M2305.446,2004.881c-1.853.587-2.364.744-2.944.923l-.638.198c-4.916,1.534-9.857,3.051-14.818,4.554-.004,1.491-.009,2.987-.019,4.505-1.347,165.323-49.389,349.499-153.726,471.211-125.969,129.965-276.784,212.496-462.48,238.907-259.496,29.624-451.403-14.725-620.245-152.031-150.117-120.649-240.072-335.58-246.291-528.07-6.776-192.602,54.995-390.317,150.558-540.829,2.939-4.468,5.913-8.865,8.906-13.224,17.456-25.429,35.81-49.012,54.892-70.896,11.597-13.301,23.456-25.99,35.551-38.07h0c150.746-149.821,278.28-180.553,401.238-213.489h0c144.267-32.771,270.364-28.391,326.852-27.473,62.539.75,139.317,3.966,209.473,10.067v-.002c-7.098-18.082-102.039-285.197-111.61-311.946-54.78-3.237-110.7-5.227-167.09-5.16-3.346.004-6.694.014-10.044.033-1.542.009-3.086.019-4.629.031-3.23.025-6.462.057-9.694.096-1.388.017-31.163.624-35.784.724-3.206.092-6.412.191-9.619.298-1.517.051-3.034.102-4.551.156-3.581.128-7.162.266-10.744.413-1.006.042-2.013.078-3.019.121-4.549.194-9.1.404-13.65.63-1.133.056-2.266.119-3.399.177-3.469.178-6.939.365-10.409.563-2.874.164-5.747.327-8.621.504h0c-149.981,8.834-252.034,25.687-365.645,69.695-1.367.486-2.731.983-4.096,1.476-1.388.5-2.777.998-4.163,1.504-1.201.439-2.399.886-3.598,1.329-1.383.511-2.767,1.019-4.148,1.537-1.203.451-2.403.91-3.604,1.365-1.371.52-2.742,1.036-4.111,1.561-1.22.468-2.436.945-3.654,1.418-1.348.523-2.697,1.043-4.042,1.573-1.215.478-2.426.965-3.639,1.448-1.348.536-2.697,1.069-4.042,1.612-1.206.486-2.409.981-3.613,1.472-1.346.549-2.693,1.094-4.036,1.648-1.216.502-2.429,1.014-3.644,1.521-1.327.554-2.656,1.105-3.982,1.666-1.217.515-2.431,1.039-3.647,1.559-1.32.565-2.641,1.125-3.958,1.696-1.203.521-2.403,1.052-3.604,1.578-1.327.581-2.655,1.158-3.979,1.746-1.208.536-2.413,1.081-3.619,1.622-1.308.587-2.618,1.17-3.924,1.762-1.218.553-2.432,1.115-3.648,1.674-1.295.595-2.592,1.185-3.885,1.786-1.213.564-2.422,1.138-3.634,1.707-1.287.605-2.576,1.206-3.861,1.816-1.218.579-2.432,1.168-3.647,1.753-1.277.614-2.556,1.224-3.831,1.844-1.206.587-2.407,1.184-3.611,1.776-1.278.629-2.558,1.253-3.833,1.888-1.213.604-2.423,1.219-3.634,1.828-1.261.635-2.524,1.265-3.783,1.906-1.21.616-2.416,1.243-3.623,1.865-1.256.647-2.514,1.289-3.768,1.942-1.205.628-2.406,1.266-3.609,1.9-1.251.659-2.503,1.312-3.751,1.977-1.188.633-2.372,1.277-3.559,1.916-1.26.678-2.521,1.352-3.778,2.037-1.182.644-2.359,1.298-3.538,1.948-1.253.69-2.508,1.375-3.758,2.071-1.182.659-2.36,1.328-3.54,1.993-1.246.701-2.493,1.397-3.736,2.105-1.184.674-2.363,1.36-3.545,2.04-1.23.708-2.462,1.411-3.689,2.125-1.194.695-2.383,1.401-3.574,2.103-1.214.714-2.429,1.423-3.64,2.143-1.16.69-2.314,1.392-3.471,2.088-1.236.743-2.475,1.481-3.708,2.232-1.161.706-2.316,1.424-3.474,2.135-1.223.752-2.448,1.498-3.668,2.256-1.169.727-2.333,1.466-3.5,2.199-1.205.757-2.412,1.508-3.614,2.271-1.155.734-2.304,1.479-3.456,2.219-1.208.776-2.419,1.545-3.624,2.328-1.141.741-2.277,1.494-3.415,2.24-1.211.794-2.424,1.583-3.632,2.383-1.145.76-2.285,1.531-3.427,2.297-1.195.801-2.392,1.595-3.583,2.402-1.183.802-2.361,1.617-3.542,2.426-1.145.784-2.292,1.562-3.434,2.353-1.274.882-2.542,1.777-3.812,2.667-1.043.73-2.088,1.453-3.128,2.189-1.321.935-2.637,1.883-3.954,2.826-.985.705-1.973,1.403-2.956,2.113-1.533,1.108-3.06,2.23-4.588,3.35-.759.556-1.521,1.105-2.279,1.664h0c-354.451,261.565-526.154,623.4-497.746,1045.005,27.453,406.879,245,750.793,622.906,899.089,327.91,128.575,740.784,93.955,1039.808-93.912,352.749-221.616,483.022-614.52,449.079-1006.946-83.27,50.726-186.934,96.447-296.004,130.274h0Z"/>
</svg>